<svg width="25" height="25" viewBox="0 0 25 25" fill="none" xmlns="http://www.w3.org/2000/svg">
<path fill-rule="evenodd" clip-rule="evenodd" d="M9.43344 4.56138C5.66729 6.97822 3.57452 9.79194 3.1551 13.0026C2.50217 18.001 6.97141 20.4492 9.23713 18.2517C11.5029 16.0542 10.1461 13.2634 8.50635 12.5002C6.86657 11.7368 5.86352 12.0021 6.03883 10.983C6.21414 9.96381 8.54843 7.13874 10.5988 5.82341C10.7348 5.7078 10.7867 5.48342 10.6558 5.31318C10.5697 5.20115 10.4008 4.98151 10.1492 4.65421C9.92911 4.368 9.7182 4.37863 9.43344 4.56138Z" fill="white"/>
<path fill-rule="evenodd" clip-rule="evenodd" d="M19.3462 4.56486C15.5801 6.98171 13.4874 9.79542 13.0679 13.0061C12.415 18.0044 16.8843 20.4527 19.15 18.2552C21.4157 16.0577 20.059 13.2669 18.4192 12.5037C16.7794 11.7403 15.7763 12.0056 15.9517 10.9865C16.127 9.9673 18.4613 7.14222 20.5116 5.82689C20.6477 5.71129 20.6995 5.48691 20.5686 5.31666C20.4825 5.20463 20.3136 4.98499 20.062 4.65769C19.842 4.37148 19.6311 4.38211 19.3462 4.56486Z" fill="white"/>
</svg>
