<svg width="25" height="25" viewBox="0 0 25 25" fill="none" xmlns="http://www.w3.org/2000/svg">
<path fill-rule="evenodd" clip-rule="evenodd" d="M14.6212 19.4651C18.3805 17.0377 20.4654 14.2181 20.8758 11.0062C21.5146 6.0061 17.0385 3.57045 14.779 5.77432C12.5195 7.97814 13.884 10.7651 15.526 11.5238C17.1679 12.2825 18.1702 12.0143 17.9977 13.034C17.8253 14.0537 15.499 16.8853 13.4523 18.2064C13.3166 18.3224 13.2654 18.5469 13.3968 18.7168C13.4832 18.8286 13.6527 19.0477 13.9052 19.3743C14.1261 19.6599 14.337 19.6487 14.6212 19.4651Z" fill="white"/>
<path fill-rule="evenodd" clip-rule="evenodd" d="M4.70843 19.4895C8.46772 17.0621 10.5526 14.2425 10.963 11.0306C11.6018 6.0305 7.12572 3.59485 4.86618 5.79872C2.60665 8.00254 3.97122 10.7895 5.61314 11.5482C7.25506 12.3069 8.2574 12.0387 8.08491 13.0584C7.91247 14.0781 5.58614 16.9097 3.53948 18.2308C3.40377 18.3468 3.35257 18.5713 3.48399 18.7412C3.57036 18.853 3.73985 19.0721 3.99241 19.3987C4.21326 19.6843 4.42413 19.6731 4.70843 19.4895Z" fill="white"/>
</svg>
